<svg height="600.000000pt" preserveAspectRatio="xMidYMid meet" version="1.0" viewBox="0 0 600.000000 600.000000" width="600.000000pt" xmlns="http://www.w3.org/2000/svg"> <g fill="currentColor" stroke="none" transform="translate(0.000000,600.000000) scale(0.100000,-0.100000)"> <path d="M2611 5722 c-27 -26 -28 -32 -34 -166 -4 -77 -7 -337 -7 -578 0 -533 -10 -652 -69 -834 -27 -81 -107 -267 -132 -304 -14 -22 -95 -191 -136 -285 -30 -68 -75 -219 -103 -345 -31 -141 -39 -189 -44 -295 -3 -66 -2 -651 2 -1300 l7 -1180 32 -50 c31 -49 72 -87 123 -116 21 -12 141 -14 730 -14 791 0 725 -6 809 77 83 82 76 -42 79 1393 3 1410 4 1383 -59 1590 -62 206 -87 268 -177 443 -74 144 -142 309 -180 437 -50 165 -54 221 -59 865 -3 401 -8 614 -15 633 -22 57 -22 57 -396 57 l-344 0 -27 -28z m557 -251 c2 -41 -1 -78 -6 -83 -7 -7 -244 -13 -352 -8 -11 0 -14 153 -3 164 4 3 86 5 182 4 l176 -3 3 -74z m-7 -652 c7 -339 14 -406 64 -614 30 -122 89 -306 114 -353 91 -169 198 -397 218 -462 30 -96 72 -278 75 -329 l2 -43 -544 -5 c-521 -5 -546 -6 -570 -25 -14 -11 -30 -29 -37 -41 -16 -29 -18 -1692 -2 -1750 7 -26 21 -44 42 -57 31 -19 55 -20 585 -20 519 0 552 -1 552 -17 -1 -10 2 -142 4 -293 5 -260 4 -277 -14 -307 -41 -68 -18 -66 -680 -61 -408 4 -602 9 -616 16 -56 30 -54 1 -53 759 1 824 15 1723 27 1843 11 107 30 185 81 332 41 118 58 156 169 374 57 114 72 148 106 249 82 239 116 501 116 879 0 133 4 236 9 242 6 5 83 8 178 8 l168 -2 6 -323z m497 -2042 c9 -6 12 -163 12 -728 l0 -719 -490 0 -490 0 0 723 c0 398 3 727 8 731 10 10 944 3 960 -7z"></path> </g> </svg>