<svg height="600.000000pt" preserveAspectRatio="xMidYMid meet" version="1.0" viewBox="0 0 600.000000 600.000000" width="600.000000pt" xmlns="http://www.w3.org/2000/svg"> <g fill="currentColor" stroke="none" transform="translate(0.000000,600.000000) scale(0.100000,-0.100000)"> <path d="M2908 5072 c-3 -7 -92 -95 -538 -526 -74 -72 -211 -206 -305 -296 -93 -91 -303 -294 -465 -450 -433 -418 -665 -644 -668 -652 -5 -11 -15 -12 287 37 152 25 319 52 371 61 107 17 210 34 385 63 138 23 225 37 530 86 121 19 258 42 305 50 47 8 128 21 180 29 474 76 646 104 673 112 14 4 17 17 17 72 0 209 137 372 348 414 196 39 409 -93 468 -291 8 -28 18 -51 23 -51 4 0 54 7 112 15 310 45 408 61 414 67 9 9 -20 56 -96 154 -324 421 -835 769 -1419 964 -177 59 -236 75 -455 121 -151 32 -162 33 -167 21z"></path> <path d="M4925 3584 c-77 -13 -167 -27 -200 -33 -33 -5 -91 -15 -130 -21 -110 -18 -112 -18 -125 -49 -18 -45 -122 -138 -184 -167 -151 -69 -347 -42 -453 63 -31 32 -33 32 -85 23 -51 -9 -202 -33 -408 -65 -230 -36 -302 -47 -410 -65 -63 -10 -162 -26 -220 -35 -225 -34 -437 -68 -605 -95 -71 -11 -173 -27 -225 -35 -192 -30 -288 -45 -410 -65 -69 -11 -170 -27 -225 -35 -55 -9 -149 -24 -210 -34 l-110 -18 -3 -305 -2 -306 42 -7 c219 -37 382 -222 380 -435 0 -71 -28 -169 -66 -228 -59 -93 -173 -170 -288 -194 l-57 -12 -3 -269 c-2 -171 1 -271 7 -276 6 -4 73 2 150 15 204 34 365 60 580 94 105 17 258 41 340 55 83 13 220 36 305 49 219 36 514 83 655 106 147 24 495 80 710 115 88 14 214 34 280 45 66 11 206 33 310 50 105 17 244 39 310 50 281 45 499 81 500 83 0 1 -2 457 -5 1012 l-5 1011 -140 -22z m-2981 -984 c39 0 113 -57 137 -106 28 -59 24 -146 -11 -196 -85 -125 -266 -124 -351 1 -20 30 -24 48 -24 106 0 78 17 113 80 160 32 25 107 47 133 39 8 -2 24 -4 36 -4z m1261 -168 c159 -81 242 -251 201 -412 -31 -122 -116 -216 -233 -260 -69 -26 -196 -29 -259 -6 -102 36 -183 109 -226 205 -27 59 -30 72 -26 155 4 108 27 164 97 239 80 86 166 119 296 113 77 -3 99 -8 150 -34z m1007 -102 c99 -28 167 -121 168 -228 1 -177 -180 -285 -346 -206 -139 66 -178 243 -77 355 69 77 161 105 255 79z"></path> </g> </svg>