<svg height="600.000000pt" preserveAspectRatio="xMidYMid meet" version="1.0" viewBox="0 0 600.000000 600.000000" width="600.000000pt" xmlns="http://www.w3.org/2000/svg"> <g fill="currentColor" stroke="none" transform="translate(0.000000,600.000000) scale(0.100000,-0.100000)"> <path d="M2834 5901 c-70 -18 -72 -20 -24 -47 100 -56 140 -119 140 -216 0 -138 -109 -276 -311 -395 -131 -77 -219 -142 -259 -193 -73 -93 -106 -223 -88 -354 8 -57 7 -71 -5 -77 -48 -28 -145 -110 -179 -153 -88 -112 -124 -221 -116 -357 6 -94 32 -173 81 -245 43 -63 177 -138 340 -192 352 -116 790 -117 1139 -1 394 130 593 398 523 698 -28 117 -85 200 -172 250 -10 5 -11 24 -4 76 14 112 -16 249 -69 315 -16 20 -15 13 7 -35 21 -46 28 -80 31 -146 8 -163 -31 -264 -147 -380 -122 -123 -288 -192 -522 -220 -217 -25 -501 27 -664 122 -64 37 -145 100 -157 123 -11 20 -11 20 13 3 56 -41 211 -109 304 -133 122 -32 354 -44 487 -24 98 14 239 59 321 102 245 131 353 413 244 642 -39 82 -60 105 -133 147 l-51 29 -6 73 c-18 249 -197 484 -433 568 -64 24 -233 35 -290 20z"></path> <path d="M4137 4358 c17 -41 27 -90 30 -143 22 -340 -264 -593 -776 -687 -169 -31 -497 -31 -661 0 -279 52 -495 147 -609 266 -19 20 -40 36 -47 36 -7 0 -49 -34 -93 -76 -63 -59 -89 -92 -118 -151 -34 -69 -38 -85 -41 -173 -7 -174 44 -277 177 -357 218 -132 534 -210 902 -220 711 -21 1267 213 1348 568 35 151 -19 332 -121 403 l-21 15 35 68 c77 147 78 315 4 461 -14 28 -28 52 -30 52 -2 0 8 -28 21 -62z"></path> <path d="M4312 3613 c19 -41 22 -67 23 -168 0 -116 -1 -122 -33 -188 -147 -301 -620 -487 -1238 -487 -220 0 -335 10 -510 45 -216 44 -426 127 -543 215 -29 23 -54 40 -56 38 -2 -2 122 -401 276 -888 154 -487 341 -1078 415 -1314 163 -516 177 -556 219 -626 150 -247 389 -204 505 89 19 50 173 539 652 2071 148 473 217 682 233 700 125 140 153 346 69 512 -31 62 -40 62 -12 1z m-2138 -690 c21 -9 66 -54 111 -110 l76 -93 -53 -65 c-29 -35 -56 -61 -60 -57 -6 6 -96 261 -115 325 -7 21 -3 21 41 0z m1886 13 c0 -11 -113 -332 -119 -339 -4 -4 -31 22 -60 58 l-52 66 73 90 c40 50 89 99 108 109 35 19 50 24 50 16z m-1642 -147 c-12 -16 -24 -29 -27 -29 -7 1 -71 84 -71 93 0 3 27 -3 60 -14 l59 -21 -21 -29z m1421 17 c-19 -25 -37 -46 -40 -46 -3 0 -15 13 -27 29 l-21 30 57 19 c31 11 59 18 61 16 2 -2 -11 -24 -30 -48z m-1164 -36 c72 -12 136 -28 144 -35 11 -11 -4 -33 -84 -131 -54 -66 -103 -120 -109 -121 -6 -1 -55 52 -108 118 l-98 120 32 41 c28 34 37 39 63 35 16 -2 89 -15 160 -27z m1058 -4 c15 -19 27 -40 27 -46 0 -17 -184 -239 -196 -237 -6 1 -55 55 -109 120 -82 100 -95 121 -84 132 8 7 61 20 119 29 58 9 119 21 135 25 57 17 79 13 108 -23z m-441 -45 c-5 -22 -186 -240 -198 -238 -16 3 -206 236 -200 246 3 4 94 7 203 7 160 -1 197 -4 195 -15z m-798 -163 c53 -64 96 -119 96 -123 0 -10 -193 -245 -201 -245 -13 0 -121 339 -112 353 20 32 109 137 115 134 3 -1 49 -55 102 -119z m470 0 c53 -64 96 -119 96 -123 0 -9 -193 -245 -200 -245 -7 0 -200 236 -200 245 0 11 195 245 202 242 3 -1 49 -55 102 -119z m470 0 c53 -65 96 -120 96 -124 0 -7 -190 -238 -199 -242 -7 -2 -193 220 -199 239 -4 10 190 250 199 246 4 -1 50 -55 103 -119z m387 100 c10 -13 37 -46 60 -75 l41 -52 -57 -171 c-31 -93 -60 -170 -64 -170 -12 0 -196 230 -196 245 0 12 183 245 193 245 2 0 12 -10 23 -22z m-1089 -389 l98 -120 -101 -125 c-56 -68 -103 -124 -104 -124 -1 0 -48 56 -103 124 l-101 124 97 121 c53 66 102 120 107 120 6 0 54 -54 107 -120z m470 -1 l97 -120 -82 -100 c-45 -55 -91 -111 -102 -125 l-21 -25 -99 122 c-55 67 -99 127 -97 132 5 19 187 237 197 237 6 0 54 -54 107 -121z m468 1 l100 -121 -52 -62 c-28 -33 -74 -90 -102 -124 l-51 -64 -28 34 c-15 18 -62 74 -103 125 l-75 92 98 120 c54 66 101 121 105 121 4 0 52 -54 108 -121z m-240 -280 c55 -67 99 -125 98 -130 -6 -15 -192 -239 -198 -239 -8 0 -169 193 -191 227 -10 18 -1 33 87 141 54 66 100 121 101 121 1 1 48 -54 103 -120z m-473 4 c49 -60 93 -114 97 -121 5 -8 -26 -54 -89 -132 -54 -66 -101 -120 -105 -120 -4 0 -51 54 -105 120 -63 78 -94 124 -89 132 19 31 186 228 194 228 5 0 48 -48 97 -107z m-438 -35 c81 -100 82 -105 21 -163 l-26 -25 -38 122 c-50 161 -50 158 -40 157 5 0 42 -41 83 -91z m1241 86 c0 -19 -84 -264 -91 -264 -9 0 -69 71 -69 83 0 10 143 186 153 186 4 1 7 -2 7 -5z m-1043 -331 c49 -60 94 -115 100 -124 10 -12 -2 -33 -73 -120 -47 -57 -90 -105 -94 -107 -5 -2 -25 50 -45 115 -20 65 -45 144 -55 177 l-19 58 45 54 c26 30 48 54 49 54 2 0 43 -48 92 -107z m497 -33 c73 -89 84 -106 72 -120 -7 -8 -52 -63 -100 -122 -48 -60 -89 -108 -91 -108 -2 0 -49 55 -104 122 -85 103 -98 124 -88 138 7 10 52 66 101 125 102 125 76 129 210 -35z m436 24 c0 -11 -9 -47 -19 -80 -11 -32 -34 -105 -51 -162 -17 -57 -35 -102 -40 -100 -6 2 -48 50 -94 107 -71 88 -83 107 -73 122 7 9 52 65 101 124 l89 109 43 -50 c24 -27 44 -58 44 -70z m-686 -291 c53 -65 96 -121 96 -124 0 -11 -191 -239 -200 -239 -9 0 -200 228 -200 239 0 10 191 241 200 241 4 0 51 -53 104 -117z m471 -3 c69 -86 95 -124 88 -133 -5 -6 -51 -63 -102 -124 l-92 -113 -100 121 c-54 67 -99 125 -99 128 0 11 190 241 199 241 5 0 52 -54 106 -120z m-237 -284 l101 -123 -97 -121 c-53 -67 -101 -121 -107 -121 -10 0 -192 218 -197 237 -2 8 188 252 197 252 1 0 48 -56 103 -124z m-437 -38 c77 -96 72 -83 43 -117 -14 -17 -29 -31 -33 -31 -5 0 -18 35 -30 78 -12 42 -24 85 -27 95 -9 29 11 19 47 -25z m716 27 c-4 -8 -16 -50 -28 -95 -12 -44 -25 -80 -29 -80 -3 0 -19 13 -34 29 l-29 30 53 65 c48 61 80 85 67 51z m-514 -274 c53 -66 97 -123 97 -126 0 -12 -153 -190 -163 -190 -11 0 -105 301 -106 338 -1 17 56 97 69 97 3 0 50 -54 103 -119z m406 77 l35 -41 -17 -66 c-31 -118 -88 -291 -95 -291 -12 0 -164 190 -160 200 5 14 191 240 197 240 3 0 21 -19 40 -42z m-255 -262 c6 -8 46 -57 89 -110 l78 -95 -32 -77 c-63 -152 -146 -201 -224 -133 -35 31 -103 154 -107 196 -2 15 24 56 82 128 47 58 89 105 94 105 5 0 14 -6 20 -14z"></path> </g> </svg>