<svg height="600.000000pt" preserveAspectRatio="xMidYMid meet" version="1.0" viewBox="0 0 600.000000 600.000000" width="600.000000pt" xmlns="http://www.w3.org/2000/svg"> <g fill="currentColor" stroke="none" transform="translate(0.000000,600.000000) scale(0.100000,-0.100000)"> <path d="M2858 5033 c-32 -70 -86 -152 -132 -201 -41 -44 -137 -112 -157 -112 -6 0 -41 -20 -78 -43 -71 -46 -147 -128 -174 -188 -25 -55 -38 -62 -87 -48 -35 11 -49 10 -98 -5 -86 -26 -115 -42 -160 -85 -60 -58 -102 -152 -102 -228 l0 -33 -55 0 c-138 0 -308 -91 -383 -205 -68 -102 -92 -178 -92 -290 0 -89 7 -123 42 -202 31 -72 28 -77 -45 -73 -51 2 -96 -17 -103 -44 -6 -26 2 -254 10 -276 3 -8 8 -46 10 -85 7 -111 49 -357 86 -505 6 -25 14 -60 17 -78 3 -18 9 -35 14 -38 5 -3 9 -14 9 -25 0 -24 46 -157 98 -284 137 -336 326 -565 595 -719 l47 -27 0 -95 c0 -75 4 -103 20 -133 20 -40 85 -101 107 -101 7 0 13 -4 13 -10 0 -16 1454 -14 1483 2 109 61 137 111 137 242 l0 95 48 27 c295 169 485 416 636 829 20 55 41 110 46 123 6 13 10 34 10 47 0 13 4 26 9 29 5 3 11 20 14 38 3 18 10 51 15 73 37 150 80 404 88 510 2 39 7 77 10 85 8 22 16 249 10 275 -8 32 -49 46 -127 44 -38 -1 -72 0 -74 3 -3 3 -12 32 -20 64 -9 32 -21 70 -27 84 -26 53 -98 148 -135 175 -21 16 -40 31 -43 34 -12 14 -94 51 -110 51 -11 0 -22 5 -25 10 -3 6 -19 10 -35 10 -40 0 -43 11 -18 67 22 51 34 182 18 212 -5 9 -19 37 -31 63 -12 26 -36 60 -53 77 -37 35 -129 83 -165 86 -15 1 -29 3 -33 3 -5 1 -8 31 -8 66 0 142 -82 226 -265 274 -116 31 -142 36 -162 34 -35 -5 -184 18 -238 35 -91 31 -118 59 -146 153 -21 72 -73 160 -125 212 -26 26 -51 48 -56 48 -4 0 -18 -21 -30 -47z m82 -198 c0 -9 4 -23 9 -33 6 -9 17 -41 27 -71 19 -63 67 -114 139 -151 27 -14 51 -25 54 -26 3 0 24 -5 46 -11 69 -19 168 -33 226 -32 32 1 74 -5 95 -11 22 -7 53 -17 69 -22 57 -19 117 -52 136 -76 14 -18 19 -41 19 -83 0 -70 -8 -77 -107 -84 -37 -2 -111 -9 -163 -14 -127 -14 -465 -14 -570 0 -47 6 -92 11 -100 11 -8 0 -40 5 -70 11 -30 6 -59 10 -64 8 -4 -1 -22 3 -40 9 -17 5 -35 11 -41 12 -20 3 -105 35 -112 41 -3 4 -13 7 -22 7 -9 0 -29 11 -45 24 l-30 23 19 49 c27 71 110 149 218 204 103 53 237 173 260 233 5 14 11 16 27 7 11 -6 20 -17 20 -25z m-673 -527 c15 -7 47 -27 71 -45 54 -41 118 -70 202 -93 25 -7 64 -19 88 -27 23 -8 48 -13 55 -10 6 2 26 0 42 -5 93 -29 589 -48 735 -29 47 6 110 12 140 12 30 1 72 5 93 10 20 6 78 12 129 14 118 5 153 -11 212 -99 69 -103 2 -256 -129 -291 -159 -42 -832 -66 -1080 -38 -144 17 -282 39 -325 53 -14 4 -45 13 -70 20 -25 7 -54 16 -65 20 -11 5 -46 18 -78 31 -32 12 -74 33 -93 45 -19 13 -38 24 -43 24 -4 0 -16 8 -27 18 -10 10 -33 28 -51 40 -41 29 -83 114 -83 166 1 61 38 125 94 164 40 26 58 32 102 32 29 0 66 -6 81 -12z m-314 -395 c89 -94 252 -188 402 -234 22 -6 49 -15 60 -20 11 -4 34 -10 50 -13 17 -3 53 -10 80 -16 155 -32 442 -59 634 -60 196 0 541 26 691 52 91 16 290 16 323 1 15 -7 38 -18 52 -25 68 -31 145 -121 178 -206 31 -79 163 -72 -1416 -72 -886 0 -1425 3 -1436 9 -21 12 -61 65 -80 106 -7 17 -17 38 -22 47 -13 25 -11 192 2 225 32 79 44 96 92 146 29 30 70 62 92 72 22 9 53 23 69 30 16 7 63 13 103 13 l74 0 52 -55z m2691 -728 c11 -29 -8 -239 -43 -470 -19 -124 -51 -275 -80 -377 -6 -21 -15 -53 -20 -70 -34 -122 -111 -311 -163 -401 -15 -26 -28 -50 -28 -53 0 -7 -101 -153 -132 -191 -83 -102 -209 -203 -313 -252 -27 -13 -58 -27 -67 -32 -10 -5 -27 -9 -37 -9 -11 0 -22 -4 -25 -9 -7 -11 -51 -19 -181 -32 -133 -14 -1178 -6 -1220 9 -16 5 -48 15 -70 22 -103 29 -210 87 -303 163 -34 28 -121 115 -145 145 -101 130 -190 288 -251 447 -15 39 -31 79 -36 90 -4 11 -13 40 -20 65 -7 25 -16 56 -20 70 -13 41 -45 166 -59 230 -11 52 -28 149 -35 200 -2 19 -12 87 -20 150 -18 130 -29 297 -21 311 4 5 655 9 1645 9 1442 0 1639 -2 1644 -15z"></path> </g> </svg>