<svg preserveAspectRatio="xMidYMid meet" version="1.0" viewBox="0 0 600.000000 475.000000" xmlns="http://www.w3.org/2000/svg"> <g fill="currentColor" transform="translate(0.000000,475.000000) scale(0.100000,-0.100000)"> <path d="M5187 4610 c-16 -5 -34 -13 -40 -18 -7 -5 -223 -117 -482 -247 -258 -131 -603 -305 -765 -387 -162 -82 -297 -153 -300 -157 -5 -8 -68 -42 -350 -188 -74 -39 -202 -105 -283 -148 l-148 -77 -132 32 c-73 18 -167 42 -210 53 -86 22 -59 24 -392 -29 -49 -8 -148 -23 -220 -34 -71 -12 -170 -27 -220 -35 -49 -8 -148 -23 -220 -35 -71 -11 -173 -27 -225 -35 -52 -9 -135 -22 -185 -30 -49 -7 -119 -19 -155 -24 -36 -6 -126 -20 -200 -32 -74 -11 -155 -24 -180 -29 -25 -5 -66 -12 -92 -15 -36 -5 -55 -14 -83 -42 l-35 -35 0 -747 0 -748 33 -35 c33 -38 45 -43 407 -199 197 -85 265 -115 291 -129 8 -4 76 -34 149 -65 73 -31 141 -61 149 -65 20 -11 47 -23 361 -160 140 -62 347 -153 460 -202 113 -50 293 -128 400 -175 212 -91 277 -120 301 -133 8 -4 107 -47 219 -95 112 -48 211 -91 219 -95 187 -94 218 -97 396 -40 72 22 168 52 215 66 47 14 148 45 225 69 77 24 223 69 325 100 236 73 467 144 645 200 77 25 192 60 255 79 332 100 375 115 398 141 l22 26 0 838 c0 835 0 838 -21 865 -28 35 -59 50 -149 70 -41 10 -280 74 -530 142 -250 69 -511 139 -580 156 -130 31 -187 49 -281 91 -53 23 -57 27 -97 112 -23 48 -42 88 -42 90 0 4 339 141 425 172 35 12 199 77 335 133 113 46 524 204 566 218 81 26 168 104 211 190 26 53 28 63 27 176 -1 99 -5 133 -24 186 -74 209 -238 326 -393 280z m124 -193 c44 -29 96 -119 109 -186 29 -151 -3 -230 -112 -280 -35 -16 -74 -32 -88 -36 -14 -4 -88 -32 -165 -62 -77 -30 -169 -66 -205 -80 -36 -13 -103 -40 -150 -59 -47 -19 -101 -41 -120 -49 -82 -31 -326 -128 -469 -184 -84 -34 -155 -60 -157 -58 -17 17 -143 282 -137 287 4 5 211 111 458 236 248 125 567 287 710 360 143 73 267 133 276 134 9 0 31 -10 50 -23z m-1524 -1066 l132 -259 -37 -15 c-35 -14 -103 -45 -237 -107 -33 -15 -76 -30 -95 -34 -19 -4 -93 -20 -165 -37 -158 -37 -315 -73 -455 -105 -58 -13 -152 -35 -210 -48 -198 -46 -375 -87 -490 -113 -144 -32 -163 -39 -195 -70 -25 -25 -25 -28 -25 -181 l0 -155 -82 7 c-270 22 -426 62 -461 117 -5 9 -7 28 -3 42 9 38 111 143 165 170 25 13 89 46 141 74 52 28 172 90 265 138 94 49 199 104 235 123 36 19 135 70 220 114 85 44 191 99 235 123 110 58 262 138 440 230 145 75 302 158 414 216 30 16 59 29 65 29 6 0 70 -117 143 -259z m-1298 -67 c76 -15 96 -23 73 -31 -7 -3 -31 -15 -55 -27 -23 -13 -114 -60 -202 -106 -88 -45 -205 -106 -260 -135 -55 -29 -175 -91 -266 -138 l-166 -87 -149 50 c-616 206 -708 239 -684 244 14 3 68 12 120 20 52 8 154 24 225 36 72 11 173 27 225 35 52 9 122 20 155 25 121 19 489 78 670 106 55 9 120 19 145 24 25 4 56 6 70 3 14 -3 58 -11 99 -19z m-1694 -440 c187 -63 403 -136 480 -161 77 -26 141 -47 143 -49 2 -1 -15 -21 -37 -45 -58 -60 -101 -150 -101 -211 0 -143 118 -241 345 -287 80 -16 305 -41 371 -41 12 0 14 -57 14 -319 l0 -318 26 -27 c19 -19 37 -26 64 -26 27 0 45 7 64 26 l26 27 0 479 0 479 23 -6 c12 -4 128 -43 257 -86 129 -44 392 -133 584 -197 l349 -117 -7 -785 c-4 -431 -9 -786 -10 -787 -2 -2 -90 36 -197 83 -107 48 -286 127 -399 177 -459 200 -683 298 -840 366 -91 40 -185 81 -210 92 -25 11 -61 27 -80 36 -19 8 -42 19 -51 23 -8 4 -76 34 -149 65 -73 31 -141 61 -149 65 -20 11 -86 40 -266 118 -77 34 -241 106 -365 161 l-225 99 -3 641 c-1 353 -1 641 0 641 2 0 156 -52 343 -116z m3290 50 c50 -19 99 -39 110 -44 92 -40 122 -50 149 -50 41 0 974 -254 944 -258 -13 -1 -72 -14 -133 -28 -235 -55 -314 -73 -430 -99 -66 -14 -156 -34 -200 -45 -44 -10 -134 -30 -200 -45 -66 -15 -165 -37 -220 -50 -55 -12 -154 -35 -220 -50 -66 -15 -165 -37 -220 -50 -207 -49 -154 -56 -517 67 -178 60 -343 116 -368 123 -151 47 -348 120 -338 126 19 10 124 35 538 129 191 44 339 78 455 105 55 14 118 27 140 31 41 6 179 63 327 134 46 21 85 39 88 40 3 0 46 -16 95 -36z m1473 -1190 l-3 -717 -55 -19 c-63 -21 -330 -103 -500 -154 -63 -19 -180 -55 -260 -80 -278 -88 -426 -133 -500 -154 -41 -12 -113 -34 -160 -50 -47 -16 -139 -45 -205 -65 -66 -20 -162 -49 -214 -65 l-94 -29 7 797 c4 438 10 800 12 804 3 5 15 8 27 8 12 0 66 11 122 24 98 24 160 39 395 91 63 14 163 37 223 50 59 14 157 36 217 50 61 14 160 36 220 50 61 14 158 36 218 49 59 14 161 37 227 52 66 15 161 37 210 50 50 12 96 23 103 23 10 1 12 -145 10 -715z"></path> </g> </svg>