<svg preserveAspectRatio="xMidYMid meet" version="1.0" viewBox="0 0 600.000000 432.000000" xmlns="http://www.w3.org/2000/svg"> <g fill="currentColor" stroke="none" transform="translate(0.000000,432.000000) scale(0.100000,-0.100000)"> <path d="M2620 3695 c-371 -41 -613 -120 -755 -245 -76 -67 -84 -78 -91 -118 -2 -15 -11 -58 -19 -97 -16 -78 -24 -115 -31 -160 -3 -16 -7 -37 -10 -45 -3 -8 -8 -26 -10 -40 -2 -14 -6 -34 -9 -45 -2 -11 -5 -24 -6 -30 -1 -5 -6 -26 -11 -45 -5 -19 -11 -46 -13 -60 -3 -14 -10 -45 -15 -70 -11 -51 -19 -92 -26 -135 -3 -16 -7 -37 -11 -45 -3 -8 -7 -31 -10 -50 -3 -19 -8 -38 -11 -41 -4 -3 -63 -16 -132 -28 -450 -83 -883 -235 -1116 -391 -98 -66 -189 -158 -229 -230 -28 -51 -30 -63 -30 -155 0 -92 2 -104 30 -155 206 -375 1127 -667 2335 -740 213 -13 837 -13 1050 0 791 48 1464 188 1896 394 224 108 372 224 439 346 28 51 30 63 30 155 0 92 -2 104 -30 155 -40 72 -131 164 -229 230 -225 151 -639 299 -1066 381 -63 12 -119 26 -125 31 -5 4 -17 39 -27 76 -9 37 -27 105 -38 152 -12 47 -39 164 -60 260 -61 275 -96 405 -123 447 -96 152 -395 259 -846 303 -140 14 -560 11 -701 -5z m-697 -635 c12 -200 56 -380 106 -441 23 -27 35 -33 64 -32 81 2 125 56 126 153 1 34 6 48 22 58 17 11 25 10 55 -9 34 -21 36 -21 79 -4 55 20 118 90 135 148 l13 42 116 -12 c166 -17 552 -16 726 2 312 33 578 108 705 199 l47 34 16 -54 c20 -63 59 -234 93 -397 13 -65 30 -137 38 -160 8 -23 33 -130 56 -237 23 -107 57 -251 75 -320 27 -108 30 -130 21 -163 -18 -60 -60 -103 -153 -153 -227 -124 -613 -205 -1060 -223 -776 -30 -1458 120 -1602 353 -22 35 -21 50 9 176 5 19 22 100 39 180 17 80 38 177 46 215 9 39 20 93 25 120 10 63 14 81 50 245 16 74 32 146 34 160 3 14 7 36 11 50 17 80 21 98 29 145 14 78 14 78 45 53 26 -22 28 -29 34 -128z m-358 -711 c-3 -12 -6 -23 -7 -24 -2 -1 -50 -17 -108 -35 -84 -26 -120 -32 -182 -31 -128 3 -208 -33 -208 -92 0 -19 -18 -36 -91 -83 -103 -66 -175 -139 -208 -209 -18 -38 -22 -63 -20 -123 2 -73 2 -75 -27 -90 -73 -37 -95 -88 -50 -117 26 -17 144 -45 192 -45 20 0 55 -16 100 -46 177 -119 475 -226 817 -295 74 -15 117 -28 117 -36 0 -25 68 -80 114 -93 61 -17 171 -8 267 22 69 22 81 23 184 13 88 -8 117 -15 142 -33 161 -115 384 -120 591 -13 53 27 68 30 237 40 944 60 1663 297 1804 596 24 50 28 135 10 195 -47 158 -313 325 -696 440 -90 27 -113 37 -113 52 0 10 2 18 5 18 21 0 312 -67 414 -95 230 -63 375 -117 534 -196 259 -129 400 -273 399 -408 -3 -276 -592 -563 -1457 -710 -813 -138 -1887 -138 -2700 0 -776 131 -1321 370 -1437 627 -43 95 -13 192 89 295 184 185 572 347 1112 462 190 41 181 40 176 14z"></path> </g> </svg>