<svg height="600.000000pt" preserveAspectRatio="xMidYMid meet" version="1.0" viewBox="0 0 600.000000 600.000000" width="600.000000pt" xmlns="http://www.w3.org/2000/svg"> <g fill="currentColor" stroke="none" transform="translate(0.000000,600.000000) scale(0.100000,-0.100000)"> <path d="M4274 5562 c-275 -144 -480 -434 -635 -903 -40 -123 -81 -269 -104 -377 -21 -95 -4 -89 -180 -63 -53 8 -195 11 -425 9 -338 -3 -347 -4 -455 -30 -99 -25 -171 -42 -290 -68 -70 -15 -188 -41 -235 -51 -77 -16 -201 -46 -310 -74 -196 -51 -265 -102 -286 -211 -3 -19 -10 -37 -15 -40 -29 -17 21 -138 73 -177 34 -25 95 -57 109 -57 17 0 125 -54 146 -73 22 -19 23 -28 23 -156 0 -75 5 -226 10 -336 6 -110 14 -299 20 -420 26 -569 77 -1156 124 -1430 25 -142 56 -256 81 -295 28 -45 123 -132 179 -165 90 -53 147 -65 306 -65 164 0 168 -1 276 -72 74 -49 160 -88 194 -88 11 0 20 -4 20 -10 0 -13 244 -13 268 -1 9 5 60 17 112 27 152 27 180 40 240 111 51 61 53 62 123 73 125 20 255 66 284 102 32 38 93 284 118 478 18 137 29 220 45 322 6 36 15 99 20 140 6 40 17 120 25 178 8 58 19 139 24 180 5 41 14 104 20 140 5 36 15 103 21 150 6 47 18 132 26 190 44 329 67 512 105 848 6 56 9 116 6 132 -6 26 -2 32 44 59 27 17 51 31 54 31 16 0 193 90 205 105 19 24 17 108 -4 158 -24 54 -127 116 -301 179 -95 35 -230 72 -297 83 -21 3 -40 10 -44 16 -11 19 156 334 302 569 277 444 304 500 304 622 0 117 -22 181 -87 246 -51 51 -53 52 -110 51 -47 0 -72 -8 -129 -37z m-784 -1484 c0 -7 -7 -59 -17 -116 -20 -117 -17 -125 43 -159 68 -39 239 -27 330 24 12 7 35 46 54 90 18 43 37 82 41 87 18 21 254 -54 324 -102 53 -37 85 -86 85 -131 0 -65 -4 -68 -235 -176 -152 -71 -435 -185 -510 -206 -16 -4 -61 -17 -100 -28 -38 -11 -116 -25 -172 -32 -94 -12 -113 -11 -225 9 -68 12 -166 28 -218 36 -52 8 -126 19 -165 25 -609 92 -950 164 -1062 224 -71 38 -91 108 -49 175 28 44 42 57 76 66 251 67 634 163 718 182 95 20 157 25 407 33 401 13 675 13 675 -1z"></path> </g> </svg>  